<svg xmlns="http://www.w3.org/2000/svg" version="1.1"
     xmlns:xlink="http://www.w3.org/1999/xlink" width="705" height="705" viewBox="0 0 705 705">
     <svg xml:space="preserve" width="705" height="705" data-version="2" data-id="lg_mYacebCD8x6KOXRvUX" viewBox="0 0 705 705" x="0" y="0">
          <rect width="100%" height="100%" fill="transparent"></rect>
          <g transform="translate(352.5 352.5)scale(6.9116)">
               <linearGradient id="a" x1="0" x2="1" y1="0" y2="0" gradientUnits="objectBoundingBox">
                    <stop offset="0%" stop-color="#ffa62e"></stop>
                    <stop offset="100%" stop-color="#f71b3d"></stop>
               </linearGradient>
               <circle r="50" fill="url(#a)"></circle>
          </g>
          <g transform="translate(359.162 337.024)">
               <filter id="b" width="146.32%" height="147.96%" x="-23.16%" y="-23.98%">
                    <feGaussianBlur in="SourceAlpha" stdDeviation="3"></feGaussianBlur>
                    <feOffset dx="3" dy="3" result="oBlur"></feOffset>
                    <feFlood flood-color="#F012BE" flood-opacity="1"></feFlood>
                    <feComposite in2="oBlur" operator="in"></feComposite>
                    <feMerge>
                         <feMergeNode></feMergeNode>
                         <feMergeNode in="SourceGraphic"></feMergeNode>
                    </feMerge>
               </filter>
               <g filter="url(#b)">
                    <linearGradient id="c" x1="0" x2="1" y1="0" y2="0" gradientUnits="objectBoundingBox">
                         <stop offset="0%" stop-color="#9c7945"></stop>
                         <stop offset="49.8%" stop-color="#faf3aa"></stop>
                         <stop offset="100%" stop-color="#9c7945"></stop>
                    </linearGradient>
                    <path fill="none" stroke="url(#c)" d="M402.65 212.51h85.07v36.46h-29.17l96.26 267.38h32.09v36.46H483.83v-36.46h28.69l-21.88-63.68h-133.2l-21.88 63.68h29.17v36.46H261.67v-36.46h31.59l96.26-266.89q-75.84.97-106.46 17.26-30.63 16.28-30.63 49.83 0 14.58 6.32 24.06 6.32 9.48 18.47 9.48 22.85 0 22.85-38.41h38.89q0 31.6-14.58 53.24-14.59 21.63-47.16 21.63-32.57 0-48.13-20.42-15.55-20.42-15.55-49.58 0-47.65 45.21-75.84 45.21-28.2 143.9-28.2Zm77.29 208.56-55.9-162.37-55.91 162.37z" transform="translate(-400.22 -382.66)"></path>
                    <path d="M2.43-170.15H87.5v36.46H58.33l96.26 267.38h32.09v36.46H83.61v-36.46h28.69L90.42 70.01h-133.2l-21.88 63.68h29.17v36.46h-103.06v-36.46h31.59L-10.7-133.2q-75.84.97-106.46 17.26-30.63 16.28-30.63 49.83 0 14.58 6.32 24.06 6.32 9.48 18.47 9.48 22.85 0 22.85-38.41h38.89q0 31.6-14.58 53.24Q-90.43 3.89-123 3.89q-32.57 0-48.13-20.42-15.55-20.42-15.55-49.58 0-47.65 45.21-75.84 45.21-28.2 143.9-28.2M79.72 38.41l-55.9-162.37-55.91 162.37z"></path>
               </g>
          </g>
     </svg>
</svg>